M48
; DRILL file {KiCad (5.1.10)-1} date 09/15/21 21:12:34
; FORMAT={-:-/ absolute / inch / decimal}
; #@! TF.CreationDate,2021-09-15T21:12:34+02:00
; #@! TF.GenerationSoftware,Kicad,Pcbnew,(5.1.10)-1
; #@! TF.FileFunction,Plated,1,2,PTH
FMAT,2
INCH
T1C0.0157
T2C0.0300
T3C0.0394
T4C0.1260
%
G90
G05
T1
X5.7126Y-3.689
X6.1181Y-4.0157
X6.1575Y-4.0157
X6.1969Y-4.0157
X6.4094Y-4.1811
X6.4094Y-4.2244
X6.5551Y-4.185
X6.5551Y-4.2244
X6.5787Y-3.9252
X6.5787Y-4.0
X6.5984Y-3.7638
X6.5984Y-3.811
X6.6669Y-3.9783
X6.8898Y-4.3583
X7.1417Y-3.815
X7.185Y-4.3583
X7.2244Y-4.1339
X7.248Y-3.7579
X7.2933Y-3.9862
X7.4232Y-4.1161
X7.4232Y-4.1496
X7.4531Y-3.8142
X7.489Y-3.8154
X7.4906Y-3.9134
X7.5268Y-3.8154
X7.7047Y-4.4173
T2
X6.7618Y-3.7213
X6.8618Y-3.8213
X6.9618Y-3.7213
T4
X5.5315Y-3.6772
X5.5315Y-4.3898
X7.9803Y-3.6772
X7.9803Y-4.3898
T3
G00X5.7087Y-3.9921
M15
G01X5.7087Y-4.0709
M16
G05
G00X5.7874Y-4.2165
M15
G01X5.8661Y-4.2165
M16
G05
G00X5.9449Y-3.9921
M15
G01X5.9449Y-4.0709
M16
G05
G00X7.5669Y-4.0669
M15
G01X7.5669Y-3.9882
M16
G05
G00X7.7244Y-3.8425
M15
G01X7.6457Y-3.8425
M16
G05
G00X7.8031Y-4.0669
M15
G01X7.8031Y-3.9882
M16
G05
T0
M30
