%TF.GenerationSoftware,KiCad,Pcbnew,(5.1.10)-1*%
%TF.CreationDate,2021-09-15T21:12:31+02:00*%
%TF.ProjectId,Aquarium_LED_Dimmer,41717561-7269-4756-9d5f-4c45445f4469,rev?*%
%TF.SameCoordinates,Original*%
%TF.FileFunction,Copper,L2,Bot*%
%TF.FilePolarity,Positive*%
%FSLAX46Y46*%
G04 Gerber Fmt 4.6, Leading zero omitted, Abs format (unit mm)*
G04 Created by KiCad (PCBNEW (5.1.10)-1) date 2021-09-15 21:12:31*
%MOMM*%
%LPD*%
G01*
G04 APERTURE LIST*
%TA.AperFunction,ComponentPad*%
%ADD10C,1.524000*%
%TD*%
%TA.AperFunction,ComponentPad*%
%ADD11C,5.600000*%
%TD*%
%TA.AperFunction,ComponentPad*%
%ADD12R,3.500000X3.500000*%
%TD*%
%TA.AperFunction,ViaPad*%
%ADD13C,0.800000*%
%TD*%
%TA.AperFunction,Conductor*%
%ADD14C,0.500000*%
%TD*%
%TA.AperFunction,Conductor*%
%ADD15C,2.000000*%
%TD*%
%TA.AperFunction,Conductor*%
%ADD16C,1.000000*%
%TD*%
%TA.AperFunction,Conductor*%
%ADD17C,0.254000*%
%TD*%
%TA.AperFunction,Conductor*%
%ADD18C,0.100000*%
%TD*%
G04 APERTURE END LIST*
D10*
%TO.P,RV1,2*%
%TO.N,Net-(C5-Pad1)*%
X174290000Y-97060000D03*
%TO.P,RV1,3*%
%TO.N,Net-(D3-Pad1)*%
X171750000Y-94520000D03*
%TO.P,RV1,1*%
%TO.N,Net-(D4-Pad2)*%
X176830000Y-94520000D03*
%TD*%
D11*
%TO.P,H4,1*%
%TO.N,N/C*%
X202700000Y-111500000D03*
%TD*%
%TO.P,H3,1*%
%TO.N,N/C*%
X202700000Y-93400000D03*
%TD*%
%TO.P,H2,1*%
%TO.N,N/C*%
X140500000Y-111500000D03*
%TD*%
%TO.P,H1,1*%
%TO.N,N/C*%
X140500000Y-93400000D03*
%TD*%
%TO.P,OUT,3*%
%TO.N,N/C*%
%TA.AperFunction,ComponentPad*%
G36*
G01*
X196950000Y-96725000D02*
X196950000Y-98475000D01*
G75*
G02*
X196075000Y-99350000I-875000J0D01*
G01*
X194325000Y-99350000D01*
G75*
G02*
X193450000Y-98475000I0J875000D01*
G01*
X193450000Y-96725000D01*
G75*
G02*
X194325000Y-95850000I875000J0D01*
G01*
X196075000Y-95850000D01*
G75*
G02*
X196950000Y-96725000I0J-875000D01*
G01*
G37*
%TD.AperFunction*%
%TO.P,OUT,2*%
%TO.N,Net-(J2-Pad2)*%
%TA.AperFunction,ComponentPad*%
G36*
G01*
X199700000Y-101300000D02*
X199700000Y-103300000D01*
G75*
G02*
X198950000Y-104050000I-750000J0D01*
G01*
X197450000Y-104050000D01*
G75*
G02*
X196700000Y-103300000I0J750000D01*
G01*
X196700000Y-101300000D01*
G75*
G02*
X197450000Y-100550000I750000J0D01*
G01*
X198950000Y-100550000D01*
G75*
G02*
X199700000Y-101300000I0J-750000D01*
G01*
G37*
%TD.AperFunction*%
D12*
%TO.P,OUT,1*%
%TO.N,U_OUT*%
X192200000Y-102300000D03*
%TD*%
%TO.P,IN,3*%
%TO.N,N/C*%
%TA.AperFunction,ComponentPad*%
G36*
G01*
X146250000Y-107975000D02*
X146250000Y-106225000D01*
G75*
G02*
X147125000Y-105350000I875000J0D01*
G01*
X148875000Y-105350000D01*
G75*
G02*
X149750000Y-106225000I0J-875000D01*
G01*
X149750000Y-107975000D01*
G75*
G02*
X148875000Y-108850000I-875000J0D01*
G01*
X147125000Y-108850000D01*
G75*
G02*
X146250000Y-107975000I0J875000D01*
G01*
G37*
%TD.AperFunction*%
%TO.P,IN,2*%
%TO.N,GND*%
%TA.AperFunction,ComponentPad*%
G36*
G01*
X143500000Y-103400000D02*
X143500000Y-101400000D01*
G75*
G02*
X144250000Y-100650000I750000J0D01*
G01*
X145750000Y-100650000D01*
G75*
G02*
X146500000Y-101400000I0J-750000D01*
G01*
X146500000Y-103400000D01*
G75*
G02*
X145750000Y-104150000I-750000J0D01*
G01*
X144250000Y-104150000D01*
G75*
G02*
X143500000Y-103400000I0J750000D01*
G01*
G37*
%TD.AperFunction*%
%TO.P,IN,1*%
%TO.N,U_OUT*%
X151000000Y-102400000D03*
%TD*%
D13*
%TO.N,GND*%
X167600000Y-95600000D03*
X167600000Y-96800000D03*
X167100000Y-99700000D03*
X167100000Y-101600000D03*
X188550000Y-105400000D03*
X188550000Y-104550000D03*
X181400000Y-96900000D03*
X184100000Y-95450000D03*
X175000000Y-110700000D03*
X182500000Y-110700000D03*
X162800000Y-106200000D03*
X162800000Y-107300000D03*
X166500000Y-106300000D03*
X166500000Y-107300000D03*
X145100000Y-93700000D03*
X195700000Y-112200000D03*
X169340000Y-101050000D03*
X189310000Y-96880000D03*
X190220000Y-96910000D03*
X191180000Y-96910000D03*
X190260000Y-99400000D03*
%TO.N,+12V*%
X183500000Y-105000000D03*
X185250000Y-101250000D03*
%TO.N,U_OUT*%
X155400000Y-102000000D03*
X156400000Y-102000000D03*
X157400000Y-102000000D03*
%TD*%
D14*
%TO.N,+12V*%
X185250000Y-101250000D02*
X184500000Y-102000000D01*
X184500000Y-102000000D02*
X184500000Y-104000000D01*
X184500000Y-104000000D02*
X183500000Y-105000000D01*
D15*
%TO.N,U_OUT*%
X151400000Y-111300000D02*
X151400000Y-102800000D01*
X153200000Y-113100000D02*
X151400000Y-111300000D01*
X191500000Y-103000000D02*
X192200000Y-102300000D01*
X153200000Y-113100000D02*
X188800000Y-113100000D01*
X192200000Y-109700000D02*
X192200000Y-102300000D01*
X188800000Y-113100000D02*
X192200000Y-109700000D01*
D16*
X157400000Y-102000000D02*
X155400000Y-102000000D01*
X151400000Y-102800000D02*
X151000000Y-102400000D01*
X151000000Y-102400000D02*
X151700000Y-102400000D01*
X151700000Y-102400000D02*
X152100000Y-102000000D01*
X152100000Y-102000000D02*
X155400000Y-102000000D01*
X155400000Y-102000000D02*
X156400000Y-102000000D01*
X156400000Y-102000000D02*
X157400000Y-102000000D01*
%TD*%
D17*
%TO.N,GND*%
X200610722Y-90664772D02*
X200510315Y-90731862D01*
X200031862Y-91210315D01*
X199655943Y-91772918D01*
X199397006Y-92398048D01*
X199265000Y-93061682D01*
X199265000Y-93738318D01*
X199397006Y-94401952D01*
X199655943Y-95027082D01*
X200031862Y-95589685D01*
X200510315Y-96068138D01*
X201072918Y-96444057D01*
X201698048Y-96702994D01*
X202361682Y-96835000D01*
X203038318Y-96835000D01*
X203701952Y-96702994D01*
X204327082Y-96444057D01*
X204889685Y-96068138D01*
X205368138Y-95589685D01*
X205551148Y-95315790D01*
X205559007Y-109595971D01*
X205368138Y-109310315D01*
X204889685Y-108831862D01*
X204327082Y-108455943D01*
X203701952Y-108197006D01*
X203038318Y-108065000D01*
X202361682Y-108065000D01*
X201698048Y-108197006D01*
X201072918Y-108455943D01*
X200510315Y-108831862D01*
X200031862Y-109310315D01*
X199655943Y-109872918D01*
X199397006Y-110498048D01*
X199265000Y-111161682D01*
X199265000Y-111838318D01*
X199397006Y-112501952D01*
X199655943Y-113127082D01*
X200031862Y-113689685D01*
X200510315Y-114168138D01*
X200780701Y-114348804D01*
X189857541Y-114347206D01*
X189961714Y-114261714D01*
X190012925Y-114199313D01*
X193299320Y-110912919D01*
X193361714Y-110861714D01*
X193566031Y-110612752D01*
X193717852Y-110328715D01*
X193811343Y-110020516D01*
X193835000Y-109780322D01*
X193835000Y-109780320D01*
X193842911Y-109700001D01*
X193835000Y-109619681D01*
X193835000Y-104688072D01*
X193950000Y-104688072D01*
X194074482Y-104675812D01*
X194194180Y-104639502D01*
X194304494Y-104580537D01*
X194401185Y-104501185D01*
X194480537Y-104404494D01*
X194539502Y-104294180D01*
X194575812Y-104174482D01*
X194588072Y-104050000D01*
X194588072Y-101300000D01*
X196061928Y-101300000D01*
X196061928Y-103300000D01*
X196088599Y-103570799D01*
X196167589Y-103831192D01*
X196295860Y-104071171D01*
X196468485Y-104281515D01*
X196678829Y-104454140D01*
X196918808Y-104582411D01*
X197179201Y-104661401D01*
X197450000Y-104688072D01*
X198950000Y-104688072D01*
X199220799Y-104661401D01*
X199481192Y-104582411D01*
X199721171Y-104454140D01*
X199931515Y-104281515D01*
X200104140Y-104071171D01*
X200232411Y-103831192D01*
X200311401Y-103570799D01*
X200338072Y-103300000D01*
X200338072Y-101300000D01*
X200311401Y-101029201D01*
X200232411Y-100768808D01*
X200104140Y-100528829D01*
X199931515Y-100318485D01*
X199721171Y-100145860D01*
X199481192Y-100017589D01*
X199220799Y-99938599D01*
X198950000Y-99911928D01*
X197450000Y-99911928D01*
X197179201Y-99938599D01*
X196918808Y-100017589D01*
X196678829Y-100145860D01*
X196468485Y-100318485D01*
X196295860Y-100528829D01*
X196167589Y-100768808D01*
X196088599Y-101029201D01*
X196061928Y-101300000D01*
X194588072Y-101300000D01*
X194588072Y-100550000D01*
X194575812Y-100425518D01*
X194539502Y-100305820D01*
X194480537Y-100195506D01*
X194401185Y-100098815D01*
X194304494Y-100019463D01*
X194227869Y-99978506D01*
X194325000Y-99988072D01*
X196075000Y-99988072D01*
X196370186Y-99958999D01*
X196654028Y-99872896D01*
X196915618Y-99733073D01*
X197144903Y-99544903D01*
X197333073Y-99315618D01*
X197472896Y-99054028D01*
X197558999Y-98770186D01*
X197588072Y-98475000D01*
X197588072Y-96725000D01*
X197558999Y-96429814D01*
X197472896Y-96145972D01*
X197333073Y-95884382D01*
X197144903Y-95655097D01*
X196915618Y-95466927D01*
X196654028Y-95327104D01*
X196370186Y-95241001D01*
X196075000Y-95211928D01*
X194325000Y-95211928D01*
X194029814Y-95241001D01*
X193745972Y-95327104D01*
X193484382Y-95466927D01*
X193255097Y-95655097D01*
X193066927Y-95884382D01*
X192927104Y-96145972D01*
X192841001Y-96429814D01*
X192811928Y-96725000D01*
X192811928Y-98475000D01*
X192841001Y-98770186D01*
X192927104Y-99054028D01*
X193066927Y-99315618D01*
X193255097Y-99544903D01*
X193484382Y-99733073D01*
X193745972Y-99872896D01*
X193874643Y-99911928D01*
X190450000Y-99911928D01*
X190325518Y-99924188D01*
X190205820Y-99960498D01*
X190095506Y-100019463D01*
X189998815Y-100098815D01*
X189919463Y-100195506D01*
X189860498Y-100305820D01*
X189824188Y-100425518D01*
X189811928Y-100550000D01*
X189811928Y-104050000D01*
X189824188Y-104174482D01*
X189860498Y-104294180D01*
X189919463Y-104404494D01*
X189998815Y-104501185D01*
X190095506Y-104580537D01*
X190205820Y-104639502D01*
X190325518Y-104675812D01*
X190450000Y-104688072D01*
X190565001Y-104688072D01*
X190565000Y-109022761D01*
X188122762Y-111465000D01*
X153877239Y-111465000D01*
X153035000Y-110622762D01*
X153035000Y-104898061D01*
X182465000Y-104898061D01*
X182465000Y-105101939D01*
X182504774Y-105301898D01*
X182582795Y-105490256D01*
X182696063Y-105659774D01*
X182840226Y-105803937D01*
X183009744Y-105917205D01*
X183198102Y-105995226D01*
X183398061Y-106035000D01*
X183601939Y-106035000D01*
X183801898Y-105995226D01*
X183990256Y-105917205D01*
X184159774Y-105803937D01*
X184303937Y-105659774D01*
X184417205Y-105490256D01*
X184495226Y-105301898D01*
X184506535Y-105245043D01*
X185095049Y-104656530D01*
X185128817Y-104628817D01*
X185219885Y-104517852D01*
X185239411Y-104494059D01*
X185321589Y-104340314D01*
X185372195Y-104173490D01*
X185373355Y-104161713D01*
X185385000Y-104043477D01*
X185385000Y-104043469D01*
X185389281Y-104000000D01*
X185385000Y-103956531D01*
X185385000Y-102366578D01*
X185495044Y-102256535D01*
X185551898Y-102245226D01*
X185740256Y-102167205D01*
X185909774Y-102053937D01*
X186053937Y-101909774D01*
X186167205Y-101740256D01*
X186245226Y-101551898D01*
X186285000Y-101351939D01*
X186285000Y-101148061D01*
X186245226Y-100948102D01*
X186167205Y-100759744D01*
X186053937Y-100590226D01*
X185909774Y-100446063D01*
X185740256Y-100332795D01*
X185551898Y-100254774D01*
X185351939Y-100215000D01*
X185148061Y-100215000D01*
X184948102Y-100254774D01*
X184759744Y-100332795D01*
X184590226Y-100446063D01*
X184446063Y-100590226D01*
X184332795Y-100759744D01*
X184254774Y-100948102D01*
X184243465Y-101004956D01*
X183904956Y-101343466D01*
X183871183Y-101371183D01*
X183760589Y-101505942D01*
X183678411Y-101659688D01*
X183627805Y-101826511D01*
X183615000Y-101956524D01*
X183615000Y-101956531D01*
X183610719Y-102000000D01*
X183615000Y-102043469D01*
X183615001Y-103633420D01*
X183254957Y-103993465D01*
X183198102Y-104004774D01*
X183009744Y-104082795D01*
X182840226Y-104196063D01*
X182696063Y-104340226D01*
X182582795Y-104509744D01*
X182504774Y-104698102D01*
X182465000Y-104898061D01*
X153035000Y-104898061D01*
X153035000Y-104717683D01*
X153104494Y-104680537D01*
X153201185Y-104601185D01*
X153280537Y-104504494D01*
X153339502Y-104394180D01*
X153375812Y-104274482D01*
X153388072Y-104150000D01*
X153388072Y-103135000D01*
X157455752Y-103135000D01*
X157622499Y-103118577D01*
X157836447Y-103053676D01*
X158033623Y-102948284D01*
X158206449Y-102806449D01*
X158348284Y-102633623D01*
X158453676Y-102436447D01*
X158518577Y-102222499D01*
X158540491Y-102000000D01*
X158518577Y-101777501D01*
X158453676Y-101563553D01*
X158348284Y-101366377D01*
X158206449Y-101193551D01*
X158033623Y-101051716D01*
X157836447Y-100946324D01*
X157622499Y-100881423D01*
X157455752Y-100865000D01*
X153388072Y-100865000D01*
X153388072Y-100650000D01*
X153375812Y-100525518D01*
X153339502Y-100405820D01*
X153280537Y-100295506D01*
X153201185Y-100198815D01*
X153104494Y-100119463D01*
X152994180Y-100060498D01*
X152874482Y-100024188D01*
X152750000Y-100011928D01*
X149250000Y-100011928D01*
X149125518Y-100024188D01*
X149005820Y-100060498D01*
X148895506Y-100119463D01*
X148798815Y-100198815D01*
X148719463Y-100295506D01*
X148660498Y-100405820D01*
X148624188Y-100525518D01*
X148611928Y-100650000D01*
X148611928Y-104150000D01*
X148624188Y-104274482D01*
X148660498Y-104394180D01*
X148719463Y-104504494D01*
X148798815Y-104601185D01*
X148895506Y-104680537D01*
X148972131Y-104721494D01*
X148875000Y-104711928D01*
X147125000Y-104711928D01*
X146829814Y-104741001D01*
X146545972Y-104827104D01*
X146284382Y-104966927D01*
X146055097Y-105155097D01*
X145866927Y-105384382D01*
X145727104Y-105645972D01*
X145641001Y-105929814D01*
X145611928Y-106225000D01*
X145611928Y-107975000D01*
X145641001Y-108270186D01*
X145727104Y-108554028D01*
X145866927Y-108815618D01*
X146055097Y-109044903D01*
X146284382Y-109233073D01*
X146545972Y-109372896D01*
X146829814Y-109458999D01*
X147125000Y-109488072D01*
X148875000Y-109488072D01*
X149170186Y-109458999D01*
X149454028Y-109372896D01*
X149715618Y-109233073D01*
X149765000Y-109192546D01*
X149765000Y-111219680D01*
X149757089Y-111300000D01*
X149765000Y-111380319D01*
X149765000Y-111380321D01*
X149788657Y-111620515D01*
X149882148Y-111928714D01*
X150033969Y-112212751D01*
X150238286Y-112461714D01*
X150300686Y-112512925D01*
X151987079Y-114199318D01*
X152038286Y-114261714D01*
X152135735Y-114341688D01*
X142432073Y-114340269D01*
X142689685Y-114168138D01*
X143168138Y-113689685D01*
X143544057Y-113127082D01*
X143802994Y-112501952D01*
X143935000Y-111838318D01*
X143935000Y-111161682D01*
X143802994Y-110498048D01*
X143544057Y-109872918D01*
X143168138Y-109310315D01*
X142689685Y-108831862D01*
X142127082Y-108455943D01*
X141501952Y-108197006D01*
X140838318Y-108065000D01*
X140161682Y-108065000D01*
X139498048Y-108197006D01*
X138872918Y-108455943D01*
X138310315Y-108831862D01*
X137831862Y-109310315D01*
X137660000Y-109567525D01*
X137660000Y-104150000D01*
X142861928Y-104150000D01*
X142874188Y-104274482D01*
X142910498Y-104394180D01*
X142969463Y-104504494D01*
X143048815Y-104601185D01*
X143145506Y-104680537D01*
X143255820Y-104739502D01*
X143375518Y-104775812D01*
X143500000Y-104788072D01*
X144714250Y-104785000D01*
X144873000Y-104626250D01*
X144873000Y-102527000D01*
X145127000Y-102527000D01*
X145127000Y-104626250D01*
X145285750Y-104785000D01*
X146500000Y-104788072D01*
X146624482Y-104775812D01*
X146744180Y-104739502D01*
X146854494Y-104680537D01*
X146951185Y-104601185D01*
X147030537Y-104504494D01*
X147089502Y-104394180D01*
X147125812Y-104274482D01*
X147138072Y-104150000D01*
X147135000Y-102685750D01*
X146976250Y-102527000D01*
X145127000Y-102527000D01*
X144873000Y-102527000D01*
X143023750Y-102527000D01*
X142865000Y-102685750D01*
X142861928Y-104150000D01*
X137660000Y-104150000D01*
X137660000Y-100650000D01*
X142861928Y-100650000D01*
X142865000Y-102114250D01*
X143023750Y-102273000D01*
X144873000Y-102273000D01*
X144873000Y-100173750D01*
X145127000Y-100173750D01*
X145127000Y-102273000D01*
X146976250Y-102273000D01*
X147135000Y-102114250D01*
X147138072Y-100650000D01*
X147125812Y-100525518D01*
X147089502Y-100405820D01*
X147030537Y-100295506D01*
X146951185Y-100198815D01*
X146854494Y-100119463D01*
X146744180Y-100060498D01*
X146624482Y-100024188D01*
X146500000Y-100011928D01*
X145285750Y-100015000D01*
X145127000Y-100173750D01*
X144873000Y-100173750D01*
X144714250Y-100015000D01*
X143500000Y-100011928D01*
X143375518Y-100024188D01*
X143255820Y-100060498D01*
X143145506Y-100119463D01*
X143048815Y-100198815D01*
X142969463Y-100295506D01*
X142910498Y-100405820D01*
X142874188Y-100525518D01*
X142861928Y-100650000D01*
X137660000Y-100650000D01*
X137660000Y-96922408D01*
X172893000Y-96922408D01*
X172893000Y-97197592D01*
X172946686Y-97467490D01*
X173051995Y-97721727D01*
X173204880Y-97950535D01*
X173399465Y-98145120D01*
X173628273Y-98298005D01*
X173882510Y-98403314D01*
X174152408Y-98457000D01*
X174427592Y-98457000D01*
X174697490Y-98403314D01*
X174951727Y-98298005D01*
X175180535Y-98145120D01*
X175375120Y-97950535D01*
X175528005Y-97721727D01*
X175633314Y-97467490D01*
X175687000Y-97197592D01*
X175687000Y-96922408D01*
X175633314Y-96652510D01*
X175528005Y-96398273D01*
X175375120Y-96169465D01*
X175180535Y-95974880D01*
X174951727Y-95821995D01*
X174697490Y-95716686D01*
X174427592Y-95663000D01*
X174152408Y-95663000D01*
X173882510Y-95716686D01*
X173628273Y-95821995D01*
X173399465Y-95974880D01*
X173204880Y-96169465D01*
X173051995Y-96398273D01*
X172946686Y-96652510D01*
X172893000Y-96922408D01*
X137660000Y-96922408D01*
X137660000Y-95332475D01*
X137831862Y-95589685D01*
X138310315Y-96068138D01*
X138872918Y-96444057D01*
X139498048Y-96702994D01*
X140161682Y-96835000D01*
X140838318Y-96835000D01*
X141501952Y-96702994D01*
X142127082Y-96444057D01*
X142689685Y-96068138D01*
X143168138Y-95589685D01*
X143544057Y-95027082D01*
X143802994Y-94401952D01*
X143806881Y-94382408D01*
X170353000Y-94382408D01*
X170353000Y-94657592D01*
X170406686Y-94927490D01*
X170511995Y-95181727D01*
X170664880Y-95410535D01*
X170859465Y-95605120D01*
X171088273Y-95758005D01*
X171342510Y-95863314D01*
X171612408Y-95917000D01*
X171887592Y-95917000D01*
X172157490Y-95863314D01*
X172411727Y-95758005D01*
X172640535Y-95605120D01*
X172835120Y-95410535D01*
X172988005Y-95181727D01*
X173093314Y-94927490D01*
X173147000Y-94657592D01*
X173147000Y-94382408D01*
X175433000Y-94382408D01*
X175433000Y-94657592D01*
X175486686Y-94927490D01*
X175591995Y-95181727D01*
X175744880Y-95410535D01*
X175939465Y-95605120D01*
X176168273Y-95758005D01*
X176422510Y-95863314D01*
X176692408Y-95917000D01*
X176967592Y-95917000D01*
X177237490Y-95863314D01*
X177491727Y-95758005D01*
X177720535Y-95605120D01*
X177915120Y-95410535D01*
X178068005Y-95181727D01*
X178173314Y-94927490D01*
X178227000Y-94657592D01*
X178227000Y-94382408D01*
X178173314Y-94112510D01*
X178068005Y-93858273D01*
X177915120Y-93629465D01*
X177720535Y-93434880D01*
X177491727Y-93281995D01*
X177237490Y-93176686D01*
X176967592Y-93123000D01*
X176692408Y-93123000D01*
X176422510Y-93176686D01*
X176168273Y-93281995D01*
X175939465Y-93434880D01*
X175744880Y-93629465D01*
X175591995Y-93858273D01*
X175486686Y-94112510D01*
X175433000Y-94382408D01*
X173147000Y-94382408D01*
X173093314Y-94112510D01*
X172988005Y-93858273D01*
X172835120Y-93629465D01*
X172640535Y-93434880D01*
X172411727Y-93281995D01*
X172157490Y-93176686D01*
X171887592Y-93123000D01*
X171612408Y-93123000D01*
X171342510Y-93176686D01*
X171088273Y-93281995D01*
X170859465Y-93434880D01*
X170664880Y-93629465D01*
X170511995Y-93858273D01*
X170406686Y-94112510D01*
X170353000Y-94382408D01*
X143806881Y-94382408D01*
X143935000Y-93738318D01*
X143935000Y-93061682D01*
X143802994Y-92398048D01*
X143544057Y-91772918D01*
X143168138Y-91210315D01*
X142689685Y-90731862D01*
X142582371Y-90660157D01*
X200610722Y-90664772D01*
%TA.AperFunction,Conductor*%
D18*
G36*
X200610722Y-90664772D02*
G01*
X200510315Y-90731862D01*
X200031862Y-91210315D01*
X199655943Y-91772918D01*
X199397006Y-92398048D01*
X199265000Y-93061682D01*
X199265000Y-93738318D01*
X199397006Y-94401952D01*
X199655943Y-95027082D01*
X200031862Y-95589685D01*
X200510315Y-96068138D01*
X201072918Y-96444057D01*
X201698048Y-96702994D01*
X202361682Y-96835000D01*
X203038318Y-96835000D01*
X203701952Y-96702994D01*
X204327082Y-96444057D01*
X204889685Y-96068138D01*
X205368138Y-95589685D01*
X205551148Y-95315790D01*
X205559007Y-109595971D01*
X205368138Y-109310315D01*
X204889685Y-108831862D01*
X204327082Y-108455943D01*
X203701952Y-108197006D01*
X203038318Y-108065000D01*
X202361682Y-108065000D01*
X201698048Y-108197006D01*
X201072918Y-108455943D01*
X200510315Y-108831862D01*
X200031862Y-109310315D01*
X199655943Y-109872918D01*
X199397006Y-110498048D01*
X199265000Y-111161682D01*
X199265000Y-111838318D01*
X199397006Y-112501952D01*
X199655943Y-113127082D01*
X200031862Y-113689685D01*
X200510315Y-114168138D01*
X200780701Y-114348804D01*
X189857541Y-114347206D01*
X189961714Y-114261714D01*
X190012925Y-114199313D01*
X193299320Y-110912919D01*
X193361714Y-110861714D01*
X193566031Y-110612752D01*
X193717852Y-110328715D01*
X193811343Y-110020516D01*
X193835000Y-109780322D01*
X193835000Y-109780320D01*
X193842911Y-109700001D01*
X193835000Y-109619681D01*
X193835000Y-104688072D01*
X193950000Y-104688072D01*
X194074482Y-104675812D01*
X194194180Y-104639502D01*
X194304494Y-104580537D01*
X194401185Y-104501185D01*
X194480537Y-104404494D01*
X194539502Y-104294180D01*
X194575812Y-104174482D01*
X194588072Y-104050000D01*
X194588072Y-101300000D01*
X196061928Y-101300000D01*
X196061928Y-103300000D01*
X196088599Y-103570799D01*
X196167589Y-103831192D01*
X196295860Y-104071171D01*
X196468485Y-104281515D01*
X196678829Y-104454140D01*
X196918808Y-104582411D01*
X197179201Y-104661401D01*
X197450000Y-104688072D01*
X198950000Y-104688072D01*
X199220799Y-104661401D01*
X199481192Y-104582411D01*
X199721171Y-104454140D01*
X199931515Y-104281515D01*
X200104140Y-104071171D01*
X200232411Y-103831192D01*
X200311401Y-103570799D01*
X200338072Y-103300000D01*
X200338072Y-101300000D01*
X200311401Y-101029201D01*
X200232411Y-100768808D01*
X200104140Y-100528829D01*
X199931515Y-100318485D01*
X199721171Y-100145860D01*
X199481192Y-100017589D01*
X199220799Y-99938599D01*
X198950000Y-99911928D01*
X197450000Y-99911928D01*
X197179201Y-99938599D01*
X196918808Y-100017589D01*
X196678829Y-100145860D01*
X196468485Y-100318485D01*
X196295860Y-100528829D01*
X196167589Y-100768808D01*
X196088599Y-101029201D01*
X196061928Y-101300000D01*
X194588072Y-101300000D01*
X194588072Y-100550000D01*
X194575812Y-100425518D01*
X194539502Y-100305820D01*
X194480537Y-100195506D01*
X194401185Y-100098815D01*
X194304494Y-100019463D01*
X194227869Y-99978506D01*
X194325000Y-99988072D01*
X196075000Y-99988072D01*
X196370186Y-99958999D01*
X196654028Y-99872896D01*
X196915618Y-99733073D01*
X197144903Y-99544903D01*
X197333073Y-99315618D01*
X197472896Y-99054028D01*
X197558999Y-98770186D01*
X197588072Y-98475000D01*
X197588072Y-96725000D01*
X197558999Y-96429814D01*
X197472896Y-96145972D01*
X197333073Y-95884382D01*
X197144903Y-95655097D01*
X196915618Y-95466927D01*
X196654028Y-95327104D01*
X196370186Y-95241001D01*
X196075000Y-95211928D01*
X194325000Y-95211928D01*
X194029814Y-95241001D01*
X193745972Y-95327104D01*
X193484382Y-95466927D01*
X193255097Y-95655097D01*
X193066927Y-95884382D01*
X192927104Y-96145972D01*
X192841001Y-96429814D01*
X192811928Y-96725000D01*
X192811928Y-98475000D01*
X192841001Y-98770186D01*
X192927104Y-99054028D01*
X193066927Y-99315618D01*
X193255097Y-99544903D01*
X193484382Y-99733073D01*
X193745972Y-99872896D01*
X193874643Y-99911928D01*
X190450000Y-99911928D01*
X190325518Y-99924188D01*
X190205820Y-99960498D01*
X190095506Y-100019463D01*
X189998815Y-100098815D01*
X189919463Y-100195506D01*
X189860498Y-100305820D01*
X189824188Y-100425518D01*
X189811928Y-100550000D01*
X189811928Y-104050000D01*
X189824188Y-104174482D01*
X189860498Y-104294180D01*
X189919463Y-104404494D01*
X189998815Y-104501185D01*
X190095506Y-104580537D01*
X190205820Y-104639502D01*
X190325518Y-104675812D01*
X190450000Y-104688072D01*
X190565001Y-104688072D01*
X190565000Y-109022761D01*
X188122762Y-111465000D01*
X153877239Y-111465000D01*
X153035000Y-110622762D01*
X153035000Y-104898061D01*
X182465000Y-104898061D01*
X182465000Y-105101939D01*
X182504774Y-105301898D01*
X182582795Y-105490256D01*
X182696063Y-105659774D01*
X182840226Y-105803937D01*
X183009744Y-105917205D01*
X183198102Y-105995226D01*
X183398061Y-106035000D01*
X183601939Y-106035000D01*
X183801898Y-105995226D01*
X183990256Y-105917205D01*
X184159774Y-105803937D01*
X184303937Y-105659774D01*
X184417205Y-105490256D01*
X184495226Y-105301898D01*
X184506535Y-105245043D01*
X185095049Y-104656530D01*
X185128817Y-104628817D01*
X185219885Y-104517852D01*
X185239411Y-104494059D01*
X185321589Y-104340314D01*
X185372195Y-104173490D01*
X185373355Y-104161713D01*
X185385000Y-104043477D01*
X185385000Y-104043469D01*
X185389281Y-104000000D01*
X185385000Y-103956531D01*
X185385000Y-102366578D01*
X185495044Y-102256535D01*
X185551898Y-102245226D01*
X185740256Y-102167205D01*
X185909774Y-102053937D01*
X186053937Y-101909774D01*
X186167205Y-101740256D01*
X186245226Y-101551898D01*
X186285000Y-101351939D01*
X186285000Y-101148061D01*
X186245226Y-100948102D01*
X186167205Y-100759744D01*
X186053937Y-100590226D01*
X185909774Y-100446063D01*
X185740256Y-100332795D01*
X185551898Y-100254774D01*
X185351939Y-100215000D01*
X185148061Y-100215000D01*
X184948102Y-100254774D01*
X184759744Y-100332795D01*
X184590226Y-100446063D01*
X184446063Y-100590226D01*
X184332795Y-100759744D01*
X184254774Y-100948102D01*
X184243465Y-101004956D01*
X183904956Y-101343466D01*
X183871183Y-101371183D01*
X183760589Y-101505942D01*
X183678411Y-101659688D01*
X183627805Y-101826511D01*
X183615000Y-101956524D01*
X183615000Y-101956531D01*
X183610719Y-102000000D01*
X183615000Y-102043469D01*
X183615001Y-103633420D01*
X183254957Y-103993465D01*
X183198102Y-104004774D01*
X183009744Y-104082795D01*
X182840226Y-104196063D01*
X182696063Y-104340226D01*
X182582795Y-104509744D01*
X182504774Y-104698102D01*
X182465000Y-104898061D01*
X153035000Y-104898061D01*
X153035000Y-104717683D01*
X153104494Y-104680537D01*
X153201185Y-104601185D01*
X153280537Y-104504494D01*
X153339502Y-104394180D01*
X153375812Y-104274482D01*
X153388072Y-104150000D01*
X153388072Y-103135000D01*
X157455752Y-103135000D01*
X157622499Y-103118577D01*
X157836447Y-103053676D01*
X158033623Y-102948284D01*
X158206449Y-102806449D01*
X158348284Y-102633623D01*
X158453676Y-102436447D01*
X158518577Y-102222499D01*
X158540491Y-102000000D01*
X158518577Y-101777501D01*
X158453676Y-101563553D01*
X158348284Y-101366377D01*
X158206449Y-101193551D01*
X158033623Y-101051716D01*
X157836447Y-100946324D01*
X157622499Y-100881423D01*
X157455752Y-100865000D01*
X153388072Y-100865000D01*
X153388072Y-100650000D01*
X153375812Y-100525518D01*
X153339502Y-100405820D01*
X153280537Y-100295506D01*
X153201185Y-100198815D01*
X153104494Y-100119463D01*
X152994180Y-100060498D01*
X152874482Y-100024188D01*
X152750000Y-100011928D01*
X149250000Y-100011928D01*
X149125518Y-100024188D01*
X149005820Y-100060498D01*
X148895506Y-100119463D01*
X148798815Y-100198815D01*
X148719463Y-100295506D01*
X148660498Y-100405820D01*
X148624188Y-100525518D01*
X148611928Y-100650000D01*
X148611928Y-104150000D01*
X148624188Y-104274482D01*
X148660498Y-104394180D01*
X148719463Y-104504494D01*
X148798815Y-104601185D01*
X148895506Y-104680537D01*
X148972131Y-104721494D01*
X148875000Y-104711928D01*
X147125000Y-104711928D01*
X146829814Y-104741001D01*
X146545972Y-104827104D01*
X146284382Y-104966927D01*
X146055097Y-105155097D01*
X145866927Y-105384382D01*
X145727104Y-105645972D01*
X145641001Y-105929814D01*
X145611928Y-106225000D01*
X145611928Y-107975000D01*
X145641001Y-108270186D01*
X145727104Y-108554028D01*
X145866927Y-108815618D01*
X146055097Y-109044903D01*
X146284382Y-109233073D01*
X146545972Y-109372896D01*
X146829814Y-109458999D01*
X147125000Y-109488072D01*
X148875000Y-109488072D01*
X149170186Y-109458999D01*
X149454028Y-109372896D01*
X149715618Y-109233073D01*
X149765000Y-109192546D01*
X149765000Y-111219680D01*
X149757089Y-111300000D01*
X149765000Y-111380319D01*
X149765000Y-111380321D01*
X149788657Y-111620515D01*
X149882148Y-111928714D01*
X150033969Y-112212751D01*
X150238286Y-112461714D01*
X150300686Y-112512925D01*
X151987079Y-114199318D01*
X152038286Y-114261714D01*
X152135735Y-114341688D01*
X142432073Y-114340269D01*
X142689685Y-114168138D01*
X143168138Y-113689685D01*
X143544057Y-113127082D01*
X143802994Y-112501952D01*
X143935000Y-111838318D01*
X143935000Y-111161682D01*
X143802994Y-110498048D01*
X143544057Y-109872918D01*
X143168138Y-109310315D01*
X142689685Y-108831862D01*
X142127082Y-108455943D01*
X141501952Y-108197006D01*
X140838318Y-108065000D01*
X140161682Y-108065000D01*
X139498048Y-108197006D01*
X138872918Y-108455943D01*
X138310315Y-108831862D01*
X137831862Y-109310315D01*
X137660000Y-109567525D01*
X137660000Y-104150000D01*
X142861928Y-104150000D01*
X142874188Y-104274482D01*
X142910498Y-104394180D01*
X142969463Y-104504494D01*
X143048815Y-104601185D01*
X143145506Y-104680537D01*
X143255820Y-104739502D01*
X143375518Y-104775812D01*
X143500000Y-104788072D01*
X144714250Y-104785000D01*
X144873000Y-104626250D01*
X144873000Y-102527000D01*
X145127000Y-102527000D01*
X145127000Y-104626250D01*
X145285750Y-104785000D01*
X146500000Y-104788072D01*
X146624482Y-104775812D01*
X146744180Y-104739502D01*
X146854494Y-104680537D01*
X146951185Y-104601185D01*
X147030537Y-104504494D01*
X147089502Y-104394180D01*
X147125812Y-104274482D01*
X147138072Y-104150000D01*
X147135000Y-102685750D01*
X146976250Y-102527000D01*
X145127000Y-102527000D01*
X144873000Y-102527000D01*
X143023750Y-102527000D01*
X142865000Y-102685750D01*
X142861928Y-104150000D01*
X137660000Y-104150000D01*
X137660000Y-100650000D01*
X142861928Y-100650000D01*
X142865000Y-102114250D01*
X143023750Y-102273000D01*
X144873000Y-102273000D01*
X144873000Y-100173750D01*
X145127000Y-100173750D01*
X145127000Y-102273000D01*
X146976250Y-102273000D01*
X147135000Y-102114250D01*
X147138072Y-100650000D01*
X147125812Y-100525518D01*
X147089502Y-100405820D01*
X147030537Y-100295506D01*
X146951185Y-100198815D01*
X146854494Y-100119463D01*
X146744180Y-100060498D01*
X146624482Y-100024188D01*
X146500000Y-100011928D01*
X145285750Y-100015000D01*
X145127000Y-100173750D01*
X144873000Y-100173750D01*
X144714250Y-100015000D01*
X143500000Y-100011928D01*
X143375518Y-100024188D01*
X143255820Y-100060498D01*
X143145506Y-100119463D01*
X143048815Y-100198815D01*
X142969463Y-100295506D01*
X142910498Y-100405820D01*
X142874188Y-100525518D01*
X142861928Y-100650000D01*
X137660000Y-100650000D01*
X137660000Y-96922408D01*
X172893000Y-96922408D01*
X172893000Y-97197592D01*
X172946686Y-97467490D01*
X173051995Y-97721727D01*
X173204880Y-97950535D01*
X173399465Y-98145120D01*
X173628273Y-98298005D01*
X173882510Y-98403314D01*
X174152408Y-98457000D01*
X174427592Y-98457000D01*
X174697490Y-98403314D01*
X174951727Y-98298005D01*
X175180535Y-98145120D01*
X175375120Y-97950535D01*
X175528005Y-97721727D01*
X175633314Y-97467490D01*
X175687000Y-97197592D01*
X175687000Y-96922408D01*
X175633314Y-96652510D01*
X175528005Y-96398273D01*
X175375120Y-96169465D01*
X175180535Y-95974880D01*
X174951727Y-95821995D01*
X174697490Y-95716686D01*
X174427592Y-95663000D01*
X174152408Y-95663000D01*
X173882510Y-95716686D01*
X173628273Y-95821995D01*
X173399465Y-95974880D01*
X173204880Y-96169465D01*
X173051995Y-96398273D01*
X172946686Y-96652510D01*
X172893000Y-96922408D01*
X137660000Y-96922408D01*
X137660000Y-95332475D01*
X137831862Y-95589685D01*
X138310315Y-96068138D01*
X138872918Y-96444057D01*
X139498048Y-96702994D01*
X140161682Y-96835000D01*
X140838318Y-96835000D01*
X141501952Y-96702994D01*
X142127082Y-96444057D01*
X142689685Y-96068138D01*
X143168138Y-95589685D01*
X143544057Y-95027082D01*
X143802994Y-94401952D01*
X143806881Y-94382408D01*
X170353000Y-94382408D01*
X170353000Y-94657592D01*
X170406686Y-94927490D01*
X170511995Y-95181727D01*
X170664880Y-95410535D01*
X170859465Y-95605120D01*
X171088273Y-95758005D01*
X171342510Y-95863314D01*
X171612408Y-95917000D01*
X171887592Y-95917000D01*
X172157490Y-95863314D01*
X172411727Y-95758005D01*
X172640535Y-95605120D01*
X172835120Y-95410535D01*
X172988005Y-95181727D01*
X173093314Y-94927490D01*
X173147000Y-94657592D01*
X173147000Y-94382408D01*
X175433000Y-94382408D01*
X175433000Y-94657592D01*
X175486686Y-94927490D01*
X175591995Y-95181727D01*
X175744880Y-95410535D01*
X175939465Y-95605120D01*
X176168273Y-95758005D01*
X176422510Y-95863314D01*
X176692408Y-95917000D01*
X176967592Y-95917000D01*
X177237490Y-95863314D01*
X177491727Y-95758005D01*
X177720535Y-95605120D01*
X177915120Y-95410535D01*
X178068005Y-95181727D01*
X178173314Y-94927490D01*
X178227000Y-94657592D01*
X178227000Y-94382408D01*
X178173314Y-94112510D01*
X178068005Y-93858273D01*
X177915120Y-93629465D01*
X177720535Y-93434880D01*
X177491727Y-93281995D01*
X177237490Y-93176686D01*
X176967592Y-93123000D01*
X176692408Y-93123000D01*
X176422510Y-93176686D01*
X176168273Y-93281995D01*
X175939465Y-93434880D01*
X175744880Y-93629465D01*
X175591995Y-93858273D01*
X175486686Y-94112510D01*
X175433000Y-94382408D01*
X173147000Y-94382408D01*
X173093314Y-94112510D01*
X172988005Y-93858273D01*
X172835120Y-93629465D01*
X172640535Y-93434880D01*
X172411727Y-93281995D01*
X172157490Y-93176686D01*
X171887592Y-93123000D01*
X171612408Y-93123000D01*
X171342510Y-93176686D01*
X171088273Y-93281995D01*
X170859465Y-93434880D01*
X170664880Y-93629465D01*
X170511995Y-93858273D01*
X170406686Y-94112510D01*
X170353000Y-94382408D01*
X143806881Y-94382408D01*
X143935000Y-93738318D01*
X143935000Y-93061682D01*
X143802994Y-92398048D01*
X143544057Y-91772918D01*
X143168138Y-91210315D01*
X142689685Y-90731862D01*
X142582371Y-90660157D01*
X200610722Y-90664772D01*
G37*
%TD.AperFunction*%
%TD*%
M02*
